<svg width="138" height="32" fill="none" xmlns="http://www.w3.org/2000/svg" id="connect_logo" style="cursor: pointer; margin-right: 15px;"><g clip-path="url(#Logo_svg__clip0_1090_6576)"><path d="M11.736 23.32h10.846v8.681H11.736l-2.707-2.533v-3.576l2.707-2.572z" fill="#FFF200"></path><path d="M10.856 27.65a.54.54 0 01-.541.542.529.529 0 01-.542-.541.54.54 0 01.542-.542c.29.02.541.252.541.542z" fill="#1D252C"></path><path fill-rule="evenodd" clip-rule="evenodd" d="M33.467 24.75a12.23 12.23 0 00-3.673-.31 15.983 15.983 0 002.339-8.37c0-8.99-7.386-16.24-16.414-16.067A16.01 16.01 0 000 16.204 16.038 16.038 0 004.138 26.82c.619.676 1.663.212 1.663-.716a9.91 9.91 0 016.786-8.661 6.685 6.685 0 003.538 1.005c3.576-.038 6.477-3.054 6.419-6.631-.078-3.577-3.036-6.438-6.632-6.36-3.345.115-6.148 2.822-6.322 6.186a6.504 6.504 0 001.334 4.292 12.02 12.02 0 00-6.709 7.617 13.88 13.88 0 01-2.146-7.83c.194-7.579 6.496-13.688 14.094-13.65 7.695.04 13.94 6.303 13.94 14.018 0 2.764-.793 5.336-2.166 7.5-.096.136-.174.272-.27.407-.02-.039-.02-.077-.039-.135a12.094 12.094 0 00-2.204-4.331c-.406-.503-1.237-.387-1.585.213-.213.386-.174.87.097 1.237a9.908 9.908 0 012.01 5.007c0 .097.02.174.02.271.019.155.057.31.154.445.136.193.348.348.619.406.154.038.29.038.444.019a6.39 6.39 0 00.33-.116c1.797-.6 3.673-.677 5.413-.251a1.076 1.076 0 001.276-.696 1.042 1.042 0 00-.735-1.315zM16.087 7.543a4.447 4.447 0 11-.002 8.895 4.447 4.447 0 01.001-8.895z" fill="#040C13"></path><path d="M51.105 28.234c-1.164 0-2.178-.156-3.042-.468-.852-.324-1.566-.774-2.142-1.35a5.437 5.437 0 01-1.26-2.07c-.276-.816-.414-1.716-.414-2.7v-.144c0-.996.168-1.896.504-2.7a5.86 5.86 0 011.404-2.07 6.293 6.293 0 012.106-1.332 7.399 7.399 0 012.664-.468c.876 0 1.674.102 2.394.306.72.204 1.344.516 1.872.936.528.408.954.936 1.278 1.584.324.648.522 1.41.594 2.286h-4.266c-.06-.6-.246-1.056-.558-1.368-.3-.312-.732-.468-1.296-.468-.72 0-1.29.276-1.71.828-.408.552-.612 1.368-.612 2.448v.144c0 1.056.204 1.872.612 2.448.408.564 1.002.846 1.782.846.576 0 1.05-.15 1.422-.45.372-.312.594-.792.666-1.44h4.122c-.048.852-.234 1.602-.558 2.25a4.968 4.968 0 01-1.296 1.638c-.528.432-1.158.762-1.89.99a8.243 8.243 0 01-2.376.324zM65.22 28.233c-1.056 0-2.01-.156-2.862-.468-.84-.324-1.554-.774-2.142-1.35a5.789 5.789 0 01-1.35-2.07c-.313-.816-.468-1.716-.468-2.7v-.144c0-.996.173-1.896.521-2.7a6.074 6.074 0 011.477-2.052 6.612 6.612 0 012.178-1.332 7.745 7.745 0 012.718-.468c.983 0 1.895.144 2.736.432.851.288 1.59.708 2.213 1.26a5.694 5.694 0 011.459 2.034c.347.792.522 1.698.522 2.718v.144c0 1.008-.168 1.926-.504 2.754a5.901 5.901 0 01-1.404 2.106 6.387 6.387 0 01-2.214 1.368c-.864.312-1.825.468-2.88.468zm.09-3.258c.791 0 1.421-.288 1.89-.864.468-.588.701-1.422.701-2.502v-.144c0-1.092-.24-1.914-.72-2.466-.468-.552-1.097-.828-1.89-.828-.791 0-1.421.282-1.89.846-.456.552-.684 1.374-.684 2.466v.144c0 1.092.235 1.926.703 2.502.468.564 1.097.846 1.89.846zM74.11 15.129h4.643l3.564 6.732v-6.732h3.654v12.87h-3.978l-4.23-7.65v7.65H74.11v-12.87zM88.488 15.129h4.644l3.564 6.732v-6.732h3.654v12.87h-3.978l-4.23-7.65v7.65h-3.654v-12.87zM102.867 15.129h9.18v3.186h-5.058v1.746h4.014v2.916h-4.014v1.836h5.346v3.186h-9.468v-12.87zM120.292 28.234c-1.164 0-2.178-.156-3.042-.468-.852-.324-1.566-.774-2.142-1.35a5.437 5.437 0 01-1.26-2.07c-.276-.816-.414-1.716-.414-2.7v-.144c0-.996.168-1.896.504-2.7a5.86 5.86 0 011.404-2.07 6.293 6.293 0 012.106-1.332 7.399 7.399 0 012.664-.468c.876 0 1.674.102 2.394.306.72.204 1.344.516 1.872.936.528.408.954.936 1.278 1.584.324.648.522 1.41.594 2.286h-4.266c-.06-.6-.246-1.056-.558-1.368-.3-.312-.732-.468-1.296-.468-.72 0-1.29.276-1.71.828-.408.552-.612 1.368-.612 2.448v.144c0 1.056.204 1.872.612 2.448.408.564 1.002.846 1.782.846.576 0 1.05-.15 1.422-.45.372-.312.594-.792.666-1.44h4.122c-.048.852-.234 1.602-.558 2.25a4.968 4.968 0 01-1.296 1.638c-.528.432-1.158.762-1.89.99a8.243 8.243 0 01-2.376.324zM130.469 18.315h-3.24v-3.186h10.638v3.186h-3.24v9.684h-4.158v-9.684zM50.986 6.787l.115-.043c.072-.036.163-.096.266-.181.103-.085.209-.185.311-.3a1.48 1.48 0 00.27-.45c.075-.188.111-.387.111-.593 0-.544-.244-1.016-.737-1.41-.494-.393-1.165-.59-2.015-.59h-3.69v7.571h3.908c1.001 0 3.076-.187 3.076-2.165 0-1.513-1.579-1.824-1.615-1.84zm-2.922-1.794h.901c.182 0 .327.055.442.16a.516.516 0 01.172.394.512.512 0 01-.172.393.629.629 0 01-.442.16h-.9V4.993zm1.682 3.844a.745.745 0 01-.533.2h-1.149V7.68h1.152c.215 0 .39.067.533.197a.647.647 0 01-.003.962zm29.175-2.05l.115-.043c.072-.036.163-.096.266-.181.103-.085.209-.185.311-.3a1.48 1.48 0 00.27-.45c.075-.188.112-.387.112-.593 0-.544-.246-1.016-.739-1.41-.493-.393-1.164-.59-2.014-.59h-3.684v7.571h3.902c1.001 0 3.076-.187 3.076-2.165 0-1.513-1.582-1.824-1.615-1.84zm-2.916-1.794h.895c.182 0 .327.055.442.16a.516.516 0 01.172.394.512.512 0 01-.172.393.63.63 0 01-.442.16h-.895V4.993zm1.676 3.844a.745.745 0 01-.533.2h-1.146V7.68h1.146c.215 0 .39.067.533.197.142.13.211.29.211.48a.644.644 0 01-.211.481zm-18.816.115h-3.657V7.764h2.985v-1.73h-2.985v-.971h3.666V3.22h-6.11v7.567h6.1V8.952zm6.255-5.731v1.842h1.999v5.725h2.432V5.063h1.999V3.22h-6.43zm-2.765 5.61c-.133.115-.317.176-.556.176-.236 0-.484-.067-.741-.197s-.43-.236-.514-.314l-.128-.121-1.442 1.37.09.09c.088.091.224.2.406.327.181.127.393.254.635.381s.541.236.901.324c.36.09.732.133 1.116.133.956 0 1.718-.248 2.284-.744.566-.496.85-1.095.85-1.794 0-.405-.082-.759-.245-1.067a1.837 1.837 0 00-.611-.693 5.939 5.939 0 00-.793-.417 4.904 4.904 0 00-.795-.27 2.427 2.427 0 01-.608-.22c-.16-.091-.242-.194-.242-.309 0-.142.057-.257.17-.348.111-.09.272-.136.48-.136.493 0 .796.221.953.384l1.449-1.376-.027-.03a1.492 1.492 0 00-.327-.278 5.608 5.608 0 00-.541-.315 3.466 3.466 0 00-.802-.272A4.587 4.587 0 0062.286 3c-.908 0-1.637.239-2.193.72-.557.48-.832 1.043-.832 1.69 0 .345.06.654.185.93.124.274.278.492.468.652.19.164.403.306.636.427.196.103.393.19.592.26.04.012.076.027.115.04.236.075.45.145.645.211.19.067.347.136.471.209.124.072.185.163.185.263a.56.56 0 01-.203.43zm22.51-1.113a.911.911 0 01-.902.91.91.91 0 01-.917-.91V3.224H80.6v4.38a3.272 3.272 0 003.27 3.272h.154a3.27 3.27 0 003.27-3.273v-4.38h-2.426v4.495h-.003zm6.605-1.92l-1.603-2.574h-2.45l2.83 4.866v2.701h2.448v-2.7l2.83-4.867h-2.452L91.47 5.798z" fill="#040C13"></path></g><defs><clipPath id="Logo_svg__clip0_1090_6576"><path fill="#fff" d="M0 0h138v32H0z"></path></clipPath></defs></svg>